<mxfile host="app.diagrams.net" modified="2023-04-12T02:13:40.691Z" agent="Mozilla/5.0 (Macintosh; Intel Mac OS X 10_15_7) AppleWebKit/537.36 (KHTML, like Gecko) Chrome/111.0.0.0 Safari/537.36" etag="KLCL92aWaRzcmvMtBhY-" version="21.1.5" type="github">
  <diagram id="C5RBs43oDa-KdzZeNtuy" name="Page-1">
    <mxGraphModel dx="1728" dy="885" grid="1" gridSize="10" guides="1" tooltips="1" connect="1" arrows="1" fold="1" page="1" pageScale="1" pageWidth="827" pageHeight="1169" math="0" shadow="0">
      <root>
        <mxCell id="WIyWlLk6GJQsqaUBKTNV-0" />
        <mxCell id="WIyWlLk6GJQsqaUBKTNV-1" parent="WIyWlLk6GJQsqaUBKTNV-0" />
        <mxCell id="RN5OgNDomMwBpa4xTKKa-11" style="edgeStyle=orthogonalEdgeStyle;rounded=0;orthogonalLoop=1;jettySize=auto;html=1;exitX=0.5;exitY=1;exitDx=0;exitDy=0;entryX=0.5;entryY=0;entryDx=0;entryDy=0;" edge="1" parent="WIyWlLk6GJQsqaUBKTNV-1" source="WIyWlLk6GJQsqaUBKTNV-3" target="PfeV246qCIffFx4sXw3s-2">
          <mxGeometry relative="1" as="geometry" />
        </mxCell>
        <mxCell id="WIyWlLk6GJQsqaUBKTNV-3" value="CSE team get a list of tickets &lt;br&gt;(Awaiting status &amp;gt;7 days)&amp;nbsp;" style="rounded=1;whiteSpace=wrap;html=1;fontSize=12;glass=0;strokeWidth=1;shadow=0;" parent="WIyWlLk6GJQsqaUBKTNV-1" vertex="1">
          <mxGeometry x="242" y="53" width="180" height="60" as="geometry" />
        </mxCell>
        <mxCell id="WIyWlLk6GJQsqaUBKTNV-6" value="pending&lt;br&gt;customer action" style="rhombus;whiteSpace=wrap;html=1;shadow=0;fontFamily=Helvetica;fontSize=12;align=center;strokeWidth=1;spacing=6;spacingTop=-4;" parent="WIyWlLk6GJQsqaUBKTNV-1" vertex="1">
          <mxGeometry x="257" y="273" width="150" height="80" as="geometry" />
        </mxCell>
        <mxCell id="PfeV246qCIffFx4sXw3s-2" value="check details for one ticket" style="rounded=1;whiteSpace=wrap;html=1;" parent="WIyWlLk6GJQsqaUBKTNV-1" vertex="1">
          <mxGeometry x="242" y="153" width="180" height="60" as="geometry" />
        </mxCell>
        <mxCell id="PfeV246qCIffFx4sXw3s-3" value="" style="endArrow=classic;html=1;rounded=0;exitX=0.5;exitY=1;exitDx=0;exitDy=0;entryX=0.5;entryY=0;entryDx=0;entryDy=0;" parent="WIyWlLk6GJQsqaUBKTNV-1" source="WIyWlLk6GJQsqaUBKTNV-6" target="PfeV246qCIffFx4sXw3s-17" edge="1">
          <mxGeometry relative="1" as="geometry">
            <mxPoint x="517" y="513" as="sourcePoint" />
            <mxPoint x="342" y="433" as="targetPoint" />
          </mxGeometry>
        </mxCell>
        <mxCell id="PfeV246qCIffFx4sXw3s-4" value="YES" style="edgeLabel;resizable=0;html=1;align=center;verticalAlign=middle;" parent="PfeV246qCIffFx4sXw3s-3" connectable="0" vertex="1">
          <mxGeometry relative="1" as="geometry" />
        </mxCell>
        <mxCell id="PfeV246qCIffFx4sXw3s-5" value="" style="endArrow=classic;html=1;rounded=0;exitX=1;exitY=0.5;exitDx=0;exitDy=0;entryX=0.5;entryY=0;entryDx=0;entryDy=0;" parent="WIyWlLk6GJQsqaUBKTNV-1" source="WIyWlLk6GJQsqaUBKTNV-6" target="PfeV246qCIffFx4sXw3s-23" edge="1">
          <mxGeometry relative="1" as="geometry">
            <mxPoint x="507" y="283" as="sourcePoint" />
            <mxPoint x="537" y="313" as="targetPoint" />
            <Array as="points">
              <mxPoint x="555" y="313" />
            </Array>
          </mxGeometry>
        </mxCell>
        <mxCell id="PfeV246qCIffFx4sXw3s-6" value="NO" style="edgeLabel;resizable=0;html=1;align=center;verticalAlign=middle;" parent="PfeV246qCIffFx4sXw3s-5" connectable="0" vertex="1">
          <mxGeometry relative="1" as="geometry">
            <mxPoint x="-72" as="offset" />
          </mxGeometry>
        </mxCell>
        <mxCell id="PfeV246qCIffFx4sXw3s-17" value="send a reminder email" style="rounded=1;whiteSpace=wrap;html=1;" parent="WIyWlLk6GJQsqaUBKTNV-1" vertex="1">
          <mxGeometry x="247" y="433" width="170" height="60" as="geometry" />
        </mxCell>
        <mxCell id="PfeV246qCIffFx4sXw3s-18" value="check the list for a new ticket" style="rounded=1;whiteSpace=wrap;html=1;" parent="WIyWlLk6GJQsqaUBKTNV-1" vertex="1">
          <mxGeometry x="247" y="783" width="170" height="60" as="geometry" />
        </mxCell>
        <mxCell id="PfeV246qCIffFx4sXw3s-19" value="" style="endArrow=classic;html=1;rounded=0;exitX=0;exitY=0.5;exitDx=0;exitDy=0;entryX=0;entryY=0.5;entryDx=0;entryDy=0;" parent="WIyWlLk6GJQsqaUBKTNV-1" source="PfeV246qCIffFx4sXw3s-18" target="PfeV246qCIffFx4sXw3s-2" edge="1">
          <mxGeometry width="50" height="50" relative="1" as="geometry">
            <mxPoint x="607" y="523" as="sourcePoint" />
            <mxPoint x="657" y="473" as="targetPoint" />
            <Array as="points">
              <mxPoint x="160" y="813" />
              <mxPoint x="160" y="183" />
              <mxPoint x="207" y="183" />
            </Array>
          </mxGeometry>
        </mxCell>
        <mxCell id="PfeV246qCIffFx4sXw3s-20" value="" style="endArrow=classic;html=1;rounded=0;exitX=0.5;exitY=1;exitDx=0;exitDy=0;entryX=0.5;entryY=0;entryDx=0;entryDy=0;" parent="WIyWlLk6GJQsqaUBKTNV-1" source="RN5OgNDomMwBpa4xTKKa-1" target="PfeV246qCIffFx4sXw3s-18" edge="1">
          <mxGeometry width="50" height="50" relative="1" as="geometry">
            <mxPoint x="477" y="553" as="sourcePoint" />
            <mxPoint x="527" y="503" as="targetPoint" />
          </mxGeometry>
        </mxCell>
        <mxCell id="PfeV246qCIffFx4sXw3s-21" value="" style="endArrow=classic;html=1;rounded=0;exitX=0.5;exitY=1;exitDx=0;exitDy=0;entryX=0.5;entryY=0;entryDx=0;entryDy=0;" parent="WIyWlLk6GJQsqaUBKTNV-1" source="PfeV246qCIffFx4sXw3s-2" target="WIyWlLk6GJQsqaUBKTNV-6" edge="1">
          <mxGeometry width="50" height="50" relative="1" as="geometry">
            <mxPoint x="347" y="523" as="sourcePoint" />
            <mxPoint x="397" y="473" as="targetPoint" />
          </mxGeometry>
        </mxCell>
        <mxCell id="PfeV246qCIffFx4sXw3s-23" value="change ticket status to&amp;nbsp;&lt;br&gt;&#39;In&amp;nbsp; Progress&#39;" style="rounded=1;whiteSpace=wrap;html=1;" parent="WIyWlLk6GJQsqaUBKTNV-1" vertex="1">
          <mxGeometry x="470" y="433" width="170" height="60" as="geometry" />
        </mxCell>
        <mxCell id="RN5OgNDomMwBpa4xTKKa-3" value="" style="edgeStyle=orthogonalEdgeStyle;rounded=0;orthogonalLoop=1;jettySize=auto;html=1;" edge="1" parent="WIyWlLk6GJQsqaUBKTNV-1" source="RN5OgNDomMwBpa4xTKKa-0" target="RN5OgNDomMwBpa4xTKKa-1">
          <mxGeometry relative="1" as="geometry" />
        </mxCell>
        <mxCell id="RN5OgNDomMwBpa4xTKKa-0" value="tag the ticket with &lt;br&gt;&#39;7 days reminder&#39;" style="rounded=1;whiteSpace=wrap;html=1;" vertex="1" parent="WIyWlLk6GJQsqaUBKTNV-1">
          <mxGeometry x="247" y="547.5" width="170" height="60" as="geometry" />
        </mxCell>
        <mxCell id="RN5OgNDomMwBpa4xTKKa-1" value="comment in ticket thread" style="rounded=1;whiteSpace=wrap;html=1;" vertex="1" parent="WIyWlLk6GJQsqaUBKTNV-1">
          <mxGeometry x="247" y="653" width="170" height="60" as="geometry" />
        </mxCell>
        <mxCell id="RN5OgNDomMwBpa4xTKKa-4" value="" style="endArrow=classic;html=1;rounded=0;exitX=0.5;exitY=1;exitDx=0;exitDy=0;entryX=0.5;entryY=0;entryDx=0;entryDy=0;" edge="1" parent="WIyWlLk6GJQsqaUBKTNV-1" source="PfeV246qCIffFx4sXw3s-17" target="RN5OgNDomMwBpa4xTKKa-0">
          <mxGeometry width="50" height="50" relative="1" as="geometry">
            <mxPoint x="567" y="583" as="sourcePoint" />
            <mxPoint x="617" y="533" as="targetPoint" />
          </mxGeometry>
        </mxCell>
        <mxCell id="RN5OgNDomMwBpa4xTKKa-5" value="" style="endArrow=classic;html=1;rounded=0;entryX=1;entryY=0.5;entryDx=0;entryDy=0;exitX=0.5;exitY=1;exitDx=0;exitDy=0;" edge="1" parent="WIyWlLk6GJQsqaUBKTNV-1" source="RN5OgNDomMwBpa4xTKKa-7" target="RN5OgNDomMwBpa4xTKKa-1">
          <mxGeometry width="50" height="50" relative="1" as="geometry">
            <mxPoint x="580" y="640" as="sourcePoint" />
            <mxPoint x="577" y="563" as="targetPoint" />
            <Array as="points">
              <mxPoint x="555" y="683" />
            </Array>
          </mxGeometry>
        </mxCell>
        <mxCell id="RN5OgNDomMwBpa4xTKKa-7" value="process ticket further" style="rounded=1;whiteSpace=wrap;html=1;" vertex="1" parent="WIyWlLk6GJQsqaUBKTNV-1">
          <mxGeometry x="470" y="547.5" width="170" height="60" as="geometry" />
        </mxCell>
        <mxCell id="RN5OgNDomMwBpa4xTKKa-10" value="" style="endArrow=classic;html=1;rounded=0;exitX=0.5;exitY=1;exitDx=0;exitDy=0;entryX=0.5;entryY=0;entryDx=0;entryDy=0;" edge="1" parent="WIyWlLk6GJQsqaUBKTNV-1" source="PfeV246qCIffFx4sXw3s-23" target="RN5OgNDomMwBpa4xTKKa-7">
          <mxGeometry width="50" height="50" relative="1" as="geometry">
            <mxPoint x="527" y="623" as="sourcePoint" />
            <mxPoint x="577" y="573" as="targetPoint" />
            <Array as="points" />
          </mxGeometry>
        </mxCell>
      </root>
    </mxGraphModel>
  </diagram>
</mxfile>
